<?xml version="1.0" encoding="iso-8859-1"?>
<!-- Uploaded to: SVG Repo, www.svgrepo.com, Generator: SVG Repo Mixer Tools -->
<svg height="800px" width="800px" version="1.1" id="Layer_1" xmlns="http://www.w3.org/2000/svg" xmlns:xlink="http://www.w3.org/1999/xlink" 
	 viewBox="0 0 512 512" xml:space="preserve">
<g>
	<g>
		<path style="fill:#F0C419;" d="M42.667,196.267c-4.71,0-8.533-3.814-8.533-8.533V153.6c0-4.719,3.823-8.533,8.533-8.533
			s8.533,3.814,8.533,8.533v34.133C51.2,192.452,47.377,196.267,42.667,196.267 M42.667,273.067c-4.71,0-8.533-3.814-8.533-8.533
			v-25.6c0-4.719,3.823-8.533,8.533-8.533s8.533,3.814,8.533,8.533v25.6C51.2,269.252,47.377,273.067,42.667,273.067 M42.667,358.4
			c-4.71,0-8.533-3.814-8.533-8.533v-51.2c0-4.719,3.823-8.533,8.533-8.533s8.533,3.814,8.533,8.533v51.2
			C51.2,354.586,47.377,358.4,42.667,358.4"/>
		<path style="fill:#F0C419;" d="M107.68,424.133c-1.22,0-2.458-0.256-3.627-0.811L73.171,408.79
			c-4.267-2.005-6.101-7.091-4.087-11.358c2.005-4.275,7.091-6.093,11.349-4.087l30.882,14.532
			c4.267,2.005,6.101,7.091,4.087,11.358C113.952,422.324,110.88,424.133,107.68,424.133 M169.452,453.198
			c-1.22,0-2.458-0.256-3.635-0.802l-23.159-10.906c-4.258-2.005-6.093-7.091-4.087-11.358c2.005-4.267,7.1-6.076,11.358-4.087
			l23.159,10.897c4.267,2.005,6.093,7.091,4.087,11.358C175.724,451.389,172.652,453.198,169.452,453.198 M221.864,477.868
			c-1.22,0-2.458-0.256-3.627-0.811l-21.53-10.129c-4.267-2.014-6.101-7.091-4.087-11.358c2.005-4.267,7.1-6.084,11.349-4.096
			l21.53,10.138c4.267,2.005,6.093,7.091,4.087,11.358C228.136,476.059,225.064,477.868,221.864,477.868"/>
		<path style="fill:#F0C419;" d="M469.333,196.267c-4.719,0-8.533-3.814-8.533-8.533V153.6c0-4.719,3.814-8.533,8.533-8.533
			c4.719,0,8.533,3.814,8.533,8.533v34.133C477.867,192.452,474.052,196.267,469.333,196.267 M469.333,247.467
			c-4.719,0-8.533-3.814-8.533-8.533v-25.6c0-4.719,3.814-8.533,8.533-8.533c4.719,0,8.533,3.814,8.533,8.533v25.6
			C477.867,243.652,474.052,247.467,469.333,247.467 M469.333,307.2c-4.719,0-8.533-3.814-8.533-8.533v-25.6
			c0-4.719,3.814-8.533,8.533-8.533c4.719,0,8.533,3.814,8.533,8.533v25.6C477.867,303.386,474.052,307.2,469.333,307.2
			 M469.333,358.4c-4.719,0-8.533-3.814-8.533-8.533v-25.6c0-4.719,3.814-8.533,8.533-8.533c4.719,0,8.533,3.814,8.533,8.533v25.6
			C477.867,354.586,474.052,358.4,469.333,358.4"/>
		<path style="fill:#F0C419;" d="M404.325,424.133c-3.209,0-6.272-1.809-7.731-4.898c-2.005-4.267-0.171-9.353,4.087-11.358
			l30.882-14.532c4.275-2.005,9.353-0.179,11.358,4.087s0.179,9.353-4.087,11.358l-30.882,14.532
			C406.774,423.877,405.545,424.133,404.325,424.133 M342.552,453.198c-3.2,0-6.272-1.809-7.731-4.898
			c-2.005-4.267-0.171-9.353,4.087-11.358l23.168-10.897c4.258-1.997,9.344-0.179,11.349,4.087
			c2.014,4.267,0.179,9.353-4.087,11.358l-23.159,10.906C345.001,452.942,343.764,453.198,342.552,453.198 M290.14,477.868
			c-3.2,0-6.272-1.809-7.731-4.898c-2.005-4.267-0.179-9.353,4.087-11.358l21.53-10.138c4.258-1.988,9.353-0.171,11.358,4.096
			s0.179,9.344-4.087,11.358l-21.53,10.129C292.589,477.612,291.36,477.868,290.14,477.868"/>
		<path style="fill:#F0C419;" d="M308.946,50.417c-1.084,0-2.185-0.205-3.243-0.64l-18.816-7.748
			c-4.361-1.801-6.434-6.784-4.642-11.145c1.792-4.352,6.793-6.417,11.136-4.642l18.816,7.748c4.361,1.801,6.434,6.784,4.642,11.145
			C315.482,48.428,312.3,50.417,308.946,50.417 M364.182,73.158c-1.084,0-2.185-0.205-3.251-0.64l-23.671-9.754
			c-4.352-1.801-6.434-6.784-4.642-11.136c1.801-4.352,6.793-6.409,11.145-4.642l23.671,9.745c4.361,1.801,6.434,6.784,4.642,11.145
			C370.719,71.17,367.536,73.158,364.182,73.158 M435.197,102.402c-1.084,0-2.176-0.213-3.243-0.64l-31.565-13.005
			c-4.352-1.801-6.434-6.784-4.642-11.136c1.801-4.361,6.784-6.409,11.145-4.642l31.556,12.996
			c4.361,1.801,6.434,6.784,4.642,11.145C441.733,100.405,438.55,102.402,435.197,102.402"/>
		<path style="fill:#F0C419;" d="M203.054,50.417c-3.354,0-6.537-1.988-7.893-5.282c-1.792-4.361,0.282-9.344,4.642-11.145
			l18.816-7.748c4.343-1.783,9.335,0.282,11.136,4.642c1.792,4.361-0.282,9.344-4.642,11.145l-18.816,7.748
			C205.239,50.212,204.138,50.417,203.054,50.417 M147.818,73.158c-3.354,0-6.537-1.988-7.893-5.282
			c-1.792-4.361,0.282-9.344,4.642-11.145l23.671-9.745c4.343-1.775,9.344,0.282,11.145,4.642c1.792,4.352-0.29,9.335-4.642,11.136
			l-23.671,9.754C150.002,72.953,148.902,73.158,147.818,73.158 M76.803,102.402c-3.354,0-6.537-1.997-7.893-5.282
			c-1.792-4.361,0.282-9.344,4.642-11.145l31.556-12.996c4.361-1.783,9.344,0.282,11.145,4.642
			c1.792,4.352-0.282,9.335-4.642,11.136l-31.565,13.005C78.988,102.188,77.887,102.402,76.803,102.402"/>
	</g>
	<polygon style="fill:#1B8746;" points="256,341.333 170.667,298.667 170.667,204.8 256,238.933 	"/>
	<polygon style="fill:#136832;" points="256,341.333 341.333,298.667 341.333,204.8 256,238.933 	"/>
	<polygon style="fill:#24AE5F;" points="256,238.933 170.667,204.8 256,162.133 341.333,204.8 	"/>
	<g>
		<path style="fill:#F0C419;" d="M127.991,187.733c-1.621,0-3.268-0.469-4.727-1.434l-51.2-34.133
			c-3.917-2.62-4.975-7.91-2.364-11.836c2.62-3.925,7.902-4.983,11.836-2.364l51.2,34.133c3.917,2.62,4.975,7.91,2.364,11.836
			C133.453,186.402,130.748,187.733,127.991,187.733"/>
		<path style="fill:#F0C419;" d="M384.009,187.733c-2.756,0-5.461-1.331-7.108-3.797c-2.611-3.925-1.553-9.216,2.364-11.836
			l51.2-34.133c3.934-2.62,9.225-1.562,11.836,2.364c2.62,3.925,1.562,9.216-2.364,11.836l-51.2,34.133
			C387.277,187.264,385.63,187.733,384.009,187.733"/>
		<path style="fill:#F0C419;" d="M435.191,366.933c-1.621,0-3.268-0.469-4.727-1.434l-51.2-34.133
			c-3.917-2.62-4.975-7.91-2.364-11.836c2.611-3.925,7.91-4.983,11.836-2.364l51.2,34.133c3.925,2.62,4.983,7.91,2.364,11.836
			C440.661,365.602,437.948,366.933,435.191,366.933"/>
		<path style="fill:#F0C419;" d="M76.809,366.933c-2.756,0-5.461-1.331-7.108-3.797c-2.611-3.925-1.553-9.216,2.364-11.836
			l51.2-34.133c3.917-2.62,9.216-1.562,11.836,2.364c2.611,3.925,1.553,9.216-2.364,11.836l-51.2,34.133
			C80.077,366.464,78.43,366.933,76.809,366.933"/>
	</g>
	<g>
		<path style="fill:#C03A2B;" d="M42.667,162.133C19.14,162.133,0,142.993,0,119.467S19.14,76.8,42.667,76.8
			s42.667,19.14,42.667,42.667S66.193,162.133,42.667,162.133"/>
		<path style="fill:#C03A2B;" d="M256,85.333c-23.526,0-42.667-19.14-42.667-42.667S232.474,0,256,0
			c23.526,0,42.667,19.14,42.667,42.667S279.526,85.333,256,85.333"/>
		<path style="fill:#C03A2B;" d="M256,512c-23.526,0-42.667-19.14-42.667-42.667c0-23.526,19.14-42.667,42.667-42.667
			c23.526,0,42.667,19.14,42.667,42.667C298.667,492.86,279.526,512,256,512"/>
		<path style="fill:#C03A2B;" d="M469.333,162.133c-23.526,0-42.667-19.14-42.667-42.667S445.807,76.8,469.333,76.8
			C492.86,76.8,512,95.94,512,119.467S492.86,162.133,469.333,162.133"/>
		<path style="fill:#C03A2B;" d="M469.333,426.667c-23.526,0-42.667-19.14-42.667-42.667s19.14-42.667,42.667-42.667
			C492.86,341.333,512,360.474,512,384S492.86,426.667,469.333,426.667"/>
		<path style="fill:#C03A2B;" d="M42.667,426.667C19.14,426.667,0,407.526,0,384s19.14-42.667,42.667-42.667
			S85.333,360.474,85.333,384S66.193,426.667,42.667,426.667"/>
	</g>
</g>
</svg>