<?xml version="1.0" encoding="iso-8859-1"?>
<!-- Uploaded to: SVG Repo, www.svgrepo.com, Generator: SVG Repo Mixer Tools -->
<svg height="800px" width="800px" version="1.1" id="Layer_1" xmlns="http://www.w3.org/2000/svg" xmlns:xlink="http://www.w3.org/1999/xlink" 
	 viewBox="0 0 512 512" xml:space="preserve">
<g>
	<path style="fill:#BDC3C7;" d="M351.103,472.276H160.886c-1.969,0-2.737-2.719-1.095-3.858l15.943-11.238
		c17.187-12.12,25.309-34.348,20.303-55.526h119.94v0.018c-5.014,21.177,3.116,43.405,20.312,55.526l15.925,11.22
		C353.857,469.575,353.08,472.276,351.103,472.276"/>
	<path style="fill:#556080;" d="M512,322.207H0V44.129c0-17.064,13.824-30.888,30.879-30.888h450.242
		c17.055,0,30.879,13.824,30.879,30.888V322.207z"/>
	<g>
		<path style="fill:#ECF0F1;" d="M357.517,498.759H154.483c-7.283,0-13.241-5.959-13.241-13.241s5.959-13.241,13.241-13.241h203.034
			c7.283,0,13.241,5.959,13.241,13.241S364.8,498.759,357.517,498.759"/>
		<path style="fill:#ECF0F1;" d="M0,370.772c0,17.055,13.824,30.888,30.879,30.888h450.242c17.055,0,30.879-13.833,30.879-30.888
			v-48.561H0V370.772z"/>
	</g>
	<path style="fill:#FFFFFF;" d="M317.793,136.828c-4.882,0-8.828-3.955-8.828-8.828v-8.828c0-29.21-23.755-52.966-52.966-52.966
		s-52.966,23.755-52.966,52.966V128c0,4.873-3.946,8.828-8.828,8.828s-8.828-3.955-8.828-8.828v-8.828
		c0-38.938,31.682-70.621,70.621-70.621s70.621,31.682,70.621,70.621V128C326.621,132.873,322.675,136.828,317.793,136.828"/>
	<polygon style="fill:#F0C419;" points="176.552,278.069 335.448,278.069 335.448,128 176.552,128 	"/>
</g>
</svg>