<?xml version="1.0" encoding="iso-8859-1"?>
<!-- Uploaded to: SVG Repo, www.svgrepo.com, Generator: SVG Repo Mixer Tools -->
<svg height="800px" width="800px" version="1.1" id="Layer_1" xmlns="http://www.w3.org/2000/svg" xmlns:xlink="http://www.w3.org/1999/xlink" 
	 viewBox="0 0 512 512" xml:space="preserve">
<g>
	<path style="fill:#556080;" d="M105.931,512H35.31v-17.655c0-19.5,15.81-35.31,35.31-35.31s35.31,15.81,35.31,35.31V512z"/>
	<path style="fill:#8697CB;" d="M97.103,397.241c0,14.627-11.855,26.483-26.483,26.483s-26.483-11.855-26.483-26.483
		c0-14.627,11.855-26.483,26.483-26.483S97.103,382.614,97.103,397.241"/>
	<path style="fill:#556080;" d="M291.31,512H220.69v-17.655c0-19.5,15.81-35.31,35.31-35.31s35.31,15.81,35.31,35.31V512z"/>
	<path style="fill:#8697CB;" d="M282.483,397.241c0,14.627-11.855,26.483-26.483,26.483c-14.627,0-26.483-11.855-26.483-26.483
		c0-14.627,11.855-26.483,26.483-26.483C270.627,370.759,282.483,382.614,282.483,397.241"/>
	<path style="fill:#556080;" d="M476.69,512h-70.621v-17.655c0-19.5,15.81-35.31,35.31-35.31c19.5,0,35.31,15.81,35.31,35.31V512z"
		/>
	<path style="fill:#8697CB;" d="M467.862,397.241c0,14.627-11.855,26.483-26.483,26.483s-26.483-11.855-26.483-26.483
		c0-14.627,11.855-26.483,26.483-26.483S467.862,382.614,467.862,397.241"/>
	<g>
		<path style="fill:#ECF0F1;" d="M70.621,344.276c-4.873,0-8.828-3.955-8.828-8.828v-35.31c0-4.873,3.955-8.828,8.828-8.828
			s8.828,3.955,8.828,8.828v35.31C79.448,340.321,75.494,344.276,70.621,344.276"/>
		<path style="fill:#ECF0F1;" d="M441.379,344.276c-4.882,0-8.828-3.955-8.828-8.828v-35.31c0-4.873,3.946-8.828,8.828-8.828
			c4.882,0,8.828,3.955,8.828,8.828v35.31C450.207,340.321,446.261,344.276,441.379,344.276"/>
		<path style="fill:#ECF0F1;" d="M441.379,308.966H70.621c-4.873,0-8.828-3.955-8.828-8.828c0-4.873,3.955-8.828,8.828-8.828
			h370.759c4.882,0,8.828,3.955,8.828,8.828C450.207,305.011,446.261,308.966,441.379,308.966"/>
		<path style="fill:#ECF0F1;" d="M256,344.276c-4.873,0-8.828-3.955-8.828-8.828V229.517c0-4.873,3.955-8.828,8.828-8.828
			s8.828,3.955,8.828,8.828v105.931C264.828,340.321,260.873,344.276,256,344.276"/>
	</g>
	<path style="fill:#3B97D3;" d="M370.759,114.759c0,63.382-51.377,114.759-114.759,114.759s-114.759-51.377-114.759-114.759
		S192.618,0,256,0S370.759,51.377,370.759,114.759"/>
	<path style="fill:#1D6791;" d="M284.039,187.125c-4.273-2.136-6.983-6.506-6.983-11.29V162.85c0.936-1.059,2.004-2.419,3.134-4.034
		c4.511-6.365,7.927-13.374,10.293-20.727c4.237-1.315,7.371-5.235,7.371-9.896v-13.859c0-3.054-1.351-5.773-3.469-7.68V86.615
		c0,0,4.122-31.188-38.118-31.188c-42.231,0-38.109,31.188-38.109,31.188v20.039c-2.119,1.907-3.469,4.626-3.469,7.68v13.859
		c0,3.655,1.916,6.868,4.793,8.722c3.46,15.086,12.526,25.935,12.526,25.935v12.668c0,4.617-2.516,8.863-6.577,11.079
		l-30.914,16.861c-2.11,1.156-3.999,2.595-5.703,4.202c18.9,13.692,42.063,21.857,67.187,21.857c25.079,0,48.207-8.139,67.09-21.786
		c-1.783-1.571-3.761-2.957-5.95-4.052L284.039,187.125z"/>
</g>
</svg>